<svg xmlns="http://www.w3.org/2000/svg" version="1.1" xmlns:xlink="http://www.w3.org/1999/xlink" xmlns:svgjs="http://svgjs.dev/svgjs" width="2000" height="1500" viewBox="0 0 2000 1500"><rect width="2000" height="1500" fill="#ffffff"></rect><g transform="matrix(0.75,0,0,0.75,249.090909090909,278.98548387096776)"><svg viewBox="0 0 396 248" data-background-color="#ffffff" preserveAspectRatio="xMidYMid meet" height="1252" width="2000" xmlns="http://www.w3.org/2000/svg" xmlns:xlink="http://www.w3.org/1999/xlink"><g id="tight-bounds" transform="matrix(1,0,0,1,0.2400000000000091,0.4000000000000057)"><svg viewBox="0 0 395.52 247.2" height="247.2" width="395.52"><g><svg></svg></g><g><svg viewBox="0 0 395.52 247.2" height="247.2" width="395.52"><g transform="matrix(1,0,0,1,116.2186650752925,47.215199999999996)"><svg viewBox="0 0 163.08266984941497 152.7696" height="152.7696" width="163.08266984941497"><g><svg viewBox="0 0 163.08266984941497 152.7696" height="152.7696" width="163.08266984941497"><g><svg viewBox="0 0 244.43135999999998 228.97393775277317" height="152.7696" width="163.08266984941497"><g transform="matrix(1,0,0,1,0,138.77723760839322)"><svg viewBox="0 0 244.43135999999998 90.19670014437996" height="90.19670014437996" width="244.43135999999998"><g id="textblocktransform"><svg viewBox="0 0 244.43135999999998 90.19670014437996" height="90.19670014437996" width="244.43135999999998" id="textblock"><g><svg viewBox="0 0 244.43135999999998 59.83411278088458" height="59.83411278088458" width="244.43135999999998"><g transform="matrix(1,0,0,1,0,0)"><svg width="244.43135999999998" viewBox="4.15 -36.5 196.68 48.15" height="59.83411278088458" data-palette-color="#000000"><path d="M23.05 0L7.15 0Q6.15 0 5.5-0.6 4.85-1.2 4.85-2.25L4.85-2.25 4.8-28.45Q4.8-29.95 4.67-31.23 4.55-32.5 4.15-33.6L4.15-33.6Q4.85-34.25 5.58-34.45 6.3-34.65 7.6-34.65L7.6-34.65 22.7-34.65Q23.15-34.65 23.33-34.18 23.5-33.7 23.4-33.05 23.3-32.4 23-31.85 22.7-31.3 22.3-31.1L22.3-31.1Q19.05-31.65 15.7-32 12.35-32.35 8.8-32.4L8.8-32.4 8.85-2.2Q11.25-2.25 13.83-2.48 16.4-2.7 18.82-3 21.25-3.3 23.2-3.6L23.2-3.6Q23.6-3.35 23.83-2.78 24.05-2.2 24.05-1.58 24.05-0.95 23.8-0.48 23.55 0 23.05 0L23.05 0ZM21.1-17L8.05-17 8.05-19.4 21.1-19.4Q21.25-18.8 21.25-18.18 21.25-17.55 21.1-17L21.1-17ZM29.25-11.55L29.25-14.15 44.35-14.15 44.35-11.55 29.25-11.55ZM63.59 0.65L63.59 0.65Q56.9 0.65 53.32-3.98 49.75-8.6 49.75-17.3L49.75-17.3Q49.75-26 53.42-30.65 57.09-35.3 63.7-35.3L63.7-35.3Q65.59-35.3 67.34-34.9 69.09-34.5 70.47-33.83 71.84-33.15 72.65-32.25 73.45-31.35 73.45-30.35L73.45-30.35Q73.45-29.35 72.59-28.63 71.75-27.9 70.2-28.05L70.2-28.05Q69.8-30.7 68.07-32.08 66.34-33.45 63.8-33.45L63.8-33.45Q59-33.45 56.59-29.38 54.2-25.3 54.2-17.3L54.2-17.3Q54.2-9.3 56.57-5.25 58.95-1.2 63.75-1.2L63.75-1.2Q66.15-1.2 67.62-2.18 69.09-3.15 69.87-4.7 70.65-6.25 70.9-7.93 71.15-9.6 71.15-11.05L71.15-11.05Q71.15-13 70.75-14.43 70.34-15.85 69.55-16.75 68.75-17.65 67.45-17.9L67.45-17.9Q67.65-18.7 68.4-19.05 69.15-19.4 70.09-19.4L70.09-19.4Q71.45-19.4 72.62-18.68 73.8-17.95 74.52-16.3 75.25-14.65 75.25-11.8L75.25-11.8Q75.25-9.9 74.82-8.08 74.4-6.25 73.52-4.67 72.65-3.1 71.27-1.93 69.9-0.75 67.97-0.05 66.05 0.65 63.59 0.65ZM101.24 0.5L101.24 0.5Q99.09 0.5 97.99-0.98 96.89-2.45 96.89-5.7L96.89-5.7 96.89-10.15 97.84-9.7Q96.99-6.7 95.27-4.38 93.54-2.05 91.24-0.75 88.94 0.55 86.24 0.55L86.24 0.55Q83.29 0.55 81.64-1.03 79.99-2.6 79.99-5.25L79.99-5.25Q79.99-7.3 81.07-8.9 82.14-10.5 84.02-11.6 85.89-12.7 88.29-13.35L88.29-13.35Q90.39-13.9 92.62-14.1 94.84-14.3 96.69-14.2L96.69-14.2 96.69-15.5Q96.69-19.85 95.24-22.05 93.79-24.25 90.34-24.25L90.34-24.25Q89.14-24.25 87.92-23.88 86.69-23.5 85.92-22.65 85.14-21.8 85.14-20.2L85.14-20.2Q85.14-19.2 85.64-18.13 86.14-17.05 87.29-16.65L87.29-16.65Q86.84-16.1 86.19-15.88 85.54-15.65 84.89-15.65L84.89-15.65Q83.14-15.65 82.14-17 81.14-18.35 81.14-20.05L81.14-20.05Q81.14-23 83.74-24.53 86.34-26.05 90.69-26.05L90.69-26.05Q95.89-26.05 98.32-23.4 100.74-20.75 100.74-15.25L100.74-15.25 100.74-5.25Q100.74-2.6 102.54-2.6L102.54-2.6Q102.94-2.6 103.44-2.85 103.94-3.1 104.19-3.65L104.19-3.65Q104.49-3.25 104.62-2.83 104.74-2.4 104.74-2.1L104.74-2.1Q104.74-1 103.74-0.25 102.74 0.5 101.24 0.5ZM88.04-2.25L88.04-2.25Q89.49-2.25 91.02-3.13 92.54-4 93.84-5.45 95.14-6.9 95.97-8.75 96.79-10.6 96.79-12.6L96.79-12.6Q95.64-12.7 94.22-12.6 92.79-12.5 91.44-12.25 90.09-12 89.04-11.6L89.04-11.6Q86.84-10.8 85.59-9.43 84.34-8.05 84.34-6.1L84.34-6.1Q84.34-4.6 85.19-3.38 86.04-2.15 88.04-2.25ZM116.04 0.65L116.04 0.65Q113.39 0.65 111.72-0.45 110.04-1.55 109.12-3.38 108.19-5.2 107.82-7.33 107.44-9.45 107.44-11.5L107.44-11.5Q107.44-18.35 110.14-22.2 112.84-26.05 117.94-26.05L117.94-26.05Q120.54-26.05 122.32-25 124.09-23.95 124.84-22.05L124.84-22.05 124.79-28.75Q124.79-30.65 124.67-32.43 124.54-34.2 124.14-35.6L124.14-35.6Q124.44-35.85 125.02-36.18 125.59-36.5 126.44-36.5L126.44-36.5Q127.44-36.5 128.12-35.93 128.79-35.35 128.79-34.3L128.79-34.3 128.74-5.25Q128.74-3.9 129.17-3.3 129.59-2.7 130.29-2.7L130.29-2.7Q130.59-2.7 130.99-2.83 131.39-2.95 131.64-3.45L131.64-3.45Q131.94-3.05 132.06-2.63 132.19-2.2 132.19-1.85L132.19-1.85Q132.19-0.85 131.31-0.23 130.44 0.4 129.09 0.4L129.09 0.4Q126.99 0.4 125.99-1.28 124.99-2.95 124.99-6L124.99-6 124.99-10.45 126.09-11Q125.74-8.5 124.99-6.38 124.24-4.25 122.99-2.68 121.74-1.1 120.02-0.23 118.29 0.65 116.04 0.65ZM117.04-1.8L117.04-1.8Q118.89-1.8 120.32-2.88 121.74-3.95 122.74-5.8 123.74-7.65 124.24-10.08 124.74-12.5 124.74-15.2L124.74-15.2Q124.74-16.7 124.49-18.23 124.24-19.75 123.59-20.98 122.94-22.2 121.72-22.95 120.49-23.7 118.59-23.7L118.59-23.7Q115.29-23.7 113.49-20.65 111.69-17.6 111.69-11.65L111.69-11.65Q111.69-9.8 111.89-8.05 112.09-6.3 112.64-4.9 113.19-3.5 114.27-2.65 115.34-1.8 117.04-1.8ZM144.29 11.65L144.29 11.65Q142.04 11.65 140.09 11 138.14 10.35 136.96 9.03 135.79 7.7 135.79 5.65L135.79 5.65Q135.79 3.95 136.71 2.95 137.64 1.95 138.89 1.95L138.89 1.95Q140.29 1.95 140.89 2.7L140.89 2.7Q140.14 3.25 139.81 4.03 139.49 4.8 139.49 5.75L139.49 5.75Q139.49 7.15 140.11 8.08 140.74 9 141.86 9.47 142.99 9.95 144.44 9.95L144.44 9.95Q148.74 9.95 150.74 6.8 152.74 3.65 152.74-2.25L152.74-2.25Q152.74-2.95 152.74-3.88 152.74-4.8 152.74-5.65L152.74-5.65Q151.84-2.9 149.69-1.35 147.54 0.2 144.44 0.2L144.44 0.2Q141.74 0.2 139.74-1.07 137.74-2.35 136.66-5.15 135.59-7.95 135.59-12.4L135.59-12.4Q135.59-14.3 135.89-16.23 136.19-18.15 136.91-19.93 137.64-21.7 138.94-23.08 140.24-24.45 142.21-25.25 144.19-26.05 146.99-26.05L146.99-26.05Q148.69-26.05 150.46-25.75 152.24-25.45 153.89-24.73 155.54-24 156.69-22.75L156.69-22.75 156.69-2.25Q156.69 2.95 155.09 6 153.49 9.05 150.69 10.35 147.89 11.65 144.29 11.65ZM145.49-2L145.49-2Q147.49-2 148.86-2.93 150.24-3.85 151.09-5.35 151.94-6.85 152.34-8.7 152.74-10.55 152.74-12.4L152.74-12.4 152.79-22.35Q151.89-23.3 150.31-23.75 148.74-24.2 146.94-24.2L146.94-24.2Q144.64-24.2 143.24-23.15 141.84-22.1 141.09-20.35 140.34-18.6 140.09-16.43 139.84-14.25 139.84-12L139.84-12Q139.84-6.65 141.21-4.33 142.59-2 145.49-2ZM174.14 0.65L174.14 0.65Q168.74 0.65 165.59-2.73 162.44-6.1 162.44-12.55L162.44-12.55Q162.44-18.8 165.51-22.43 168.59-26.05 174.34-26.05L174.34-26.05Q177.04-26.05 179.09-25.23 181.14-24.4 182.31-22.8 183.49-21.2 183.49-18.85L183.49-18.85Q183.49-15.1 180.46-13.18 177.44-11.25 172.14-11.25L172.14-11.25Q170.04-11.25 168.14-11.43 166.24-11.6 164.29-12L164.29-12 164.39-13.65Q165.64-13.4 167.31-13.25 168.99-13.1 170.59-13.05L170.59-13.05Q172.34-13.05 173.91-13.35 175.49-13.65 176.69-14.35 177.89-15.05 178.56-16.28 179.24-17.5 179.24-19.35L179.24-19.35Q179.24-21.3 178.49-22.35 177.74-23.4 176.59-23.83 175.44-24.25 174.19-24.25L174.19-24.25Q170.84-24.25 168.76-21.43 166.69-18.6 166.69-13.05L166.69-13.05Q166.69-8.9 167.81-6.53 168.94-4.15 170.84-3.13 172.74-2.1 175.09-2.1L175.09-2.1Q177.79-2.1 179.84-3.23 181.89-4.35 182.59-6.45L182.59-6.45Q183.09-6.25 183.31-5.73 183.54-5.2 183.04-3.95L183.04-3.95Q182.09-1.7 179.69-0.53 177.29 0.65 174.14 0.65ZM195.58 0.55L195.58 0.55Q193.18 0.55 191.86-0.93 190.53-2.4 190.53-5L190.53-5 190.53-29.8Q190.53-30.85 191.18-31.43 191.83-32 192.88-32L192.88-32Q193.78-32 194.33-31.68 194.88-31.35 195.18-31.1L195.18-31.1Q194.73-29.7 194.63-27.45 194.53-25.2 194.53-21.35L194.53-21.35 194.53-5.25Q194.53-4 195.13-3.28 195.73-2.55 196.93-2.55L196.93-2.55Q197.63-2.55 198.33-2.8 199.03-3.05 199.28-3.6L199.28-3.6Q199.58-3.2 199.71-2.78 199.83-2.35 199.83-2L199.83-2Q199.83-0.9 198.63-0.18 197.43 0.55 195.58 0.55ZM186.83-23.1L186.83-23.1 186.88-24.25Q186.93-24.8 187.26-25.08 187.58-25.35 187.98-25.35L187.98-25.35 196.58-25.35Q196.78-25.35 197.38-25.38 197.98-25.4 198.71-25.43 199.43-25.45 200.03-25.48 200.63-25.5 200.83-25.5L200.83-25.5 200.78-24.4Q200.73-23.85 200.43-23.55 200.13-23.25 199.68-23.25L199.68-23.25 189.83-23.25Q189.33-23.25 188.33-23.23 187.33-23.2 186.83-23.1Z" opacity="1" transform="matrix(1,0,0,1,0,0)" fill="#000000" class="wordmark-text-0" data-fill-palette-color="primary" id="text-0"></path></svg></g></svg></g><g transform="matrix(1,0,0,1,0,73.95951078974468)"><svg viewBox="0 0 244.43135999999998 16.237189354635273" height="16.237189354635273" width="244.43135999999998"><g transform="matrix(1,0,0,1,0,0)"><svg width="244.43135999999998" viewBox="3.1 -36.4 713.48 47.4" height="16.237189354635273" data-palette-color="#000000"><path d="M19.25 0.6L19.25 0.6Q16.25 0.6 13.35-0.35 10.45-1.3 8.15-3.38 5.85-5.45 4.48-8.9 3.1-12.35 3.1-17.35L3.1-17.35Q3.1-22.4 4.48-25.9 5.85-29.4 8.15-31.53 10.45-33.65 13.35-34.63 16.25-35.6 19.25-35.6L19.25-35.6Q22.25-35.6 25.15-34.63 28.05-33.65 30.35-31.53 32.65-29.4 34.02-25.9 35.4-22.4 35.4-17.35L35.4-17.35Q35.4-12.35 34.02-8.9 32.65-5.45 30.35-3.38 28.05-1.3 25.18-0.35 22.3 0.6 19.25 0.6ZM19.2-3.2L19.2-3.2Q22.4-3.2 25.05-4.6 27.7-6 29.3-9.13 30.9-12.25 30.9-17.5L30.9-17.5Q30.9-22.7 29.33-25.85 27.75-29 25.1-30.4 22.45-31.8 19.25-31.8L19.25-31.8Q16.05-31.8 13.4-30.4 10.75-29 9.18-25.85 7.6-22.7 7.6-17.5L7.6-17.5Q7.6-12.3 9.18-9.15 10.75-6 13.38-4.6 16-3.2 19.2-3.2ZM64.9 0L59.7 0 60.2-4 60.2-16.75Q60.2-19.5 58.65-20.9 57.1-22.3 54.05-22.3L54.05-22.3Q51.65-22.3 49.95-21.6 48.25-20.9 47.17-20.03 46.1-19.15 45.55-18.55L45.55-18.55 45.55-21.45 50.95-25.55Q51.95-25.8 53-25.95 54.05-26.1 55.15-26.1L55.15-26.1Q57.55-26.1 59.65-25.28 61.75-24.45 63.07-22.45 64.4-20.45 64.4-16.9L64.4-16.9 64.4-4 64.9 0ZM47.5 0L42.3 0 42.8-4 42.8-21.6 42.3-25.5 46.3-25.5 47-22.55 47-4 47.5 0ZM70.9-12.8L70.9-12.8Q70.9-17.75 72.52-20.68 74.15-23.6 76.8-24.85 79.45-26.1 82.45-26.1L82.45-26.1Q85.9-26.1 88.22-24.73 90.55-23.35 91.72-20.83 92.9-18.3 92.9-14.8L92.9-14.8Q92.9-13.8 92.8-12.95 92.7-12.1 92.55-11.35L92.55-11.35 73.1-11.35 73.1-12.25 77.6-14.75 88.65-14.75Q88.65-17 88.17-18.75 87.7-20.5 86.35-21.5 85-22.5 82.4-22.5L82.4-22.5Q79.7-22.5 78.12-21.33 76.55-20.15 75.87-18.05 75.2-15.95 75.2-13.15L75.2-13.15Q75.2-9.8 75.95-7.75 76.7-5.7 77.95-4.7 79.2-3.7 80.7-3.35 82.2-3 83.7-3L83.7-3Q86.05-3 87.77-3.48 89.5-3.95 90.85-4.75L90.85-4.75 91.65-4.25 91.65-0.65Q90.1-0.1 88.22 0.25 86.35 0.6 84.15 0.6L84.15 0.6Q81.75 0.6 79.37 0.03 77-0.55 75.1-2 73.2-3.45 72.05-6.08 70.9-8.7 70.9-12.8ZM123.09 0.6L123.09 0.6Q120.14 0.65 117.34 0 114.54-0.65 112.34-1.7L112.34-1.7 112.34-5.5 113.34-6Q115.39-4.75 117.56-4.08 119.74-3.4 122.54-3.4L122.54-3.4Q126.29-3.4 128.44-4.7 130.59-6 130.59-8.6L130.59-8.6Q130.59-10.4 129.64-11.63 128.69-12.85 127.09-13.75 125.49-14.65 123.62-15.43 121.74-16.2 119.84-17.07 117.94-17.95 116.34-19.15 114.74-20.35 113.79-22.1 112.84-23.85 112.84-26.4L112.84-26.4Q112.84-29.65 114.42-31.68 115.99-33.7 118.54-34.65 121.09-35.6 123.99-35.6L123.99-35.6Q125.99-35.6 128.24-35.18 130.49-34.75 132.69-33.8L132.69-33.8 132.69-30 131.69-29.5Q129.99-30.55 128.12-31.08 126.24-31.6 124.29-31.6L124.29-31.6Q122.24-31.6 120.64-31.03 119.04-30.45 118.14-29.33 117.24-28.2 117.24-26.5L117.24-26.5Q117.24-24.75 118.19-23.55 119.14-22.35 120.74-21.48 122.34-20.6 124.24-19.83 126.14-19.05 128.02-18.18 129.89-17.3 131.49-16.07 133.09-14.85 134.04-13.08 134.99-11.3 134.99-8.75L134.99-8.75Q134.99-6.2 134.02-4.42 133.04-2.65 131.37-1.55 129.69-0.45 127.56 0.08 125.44 0.6 123.09 0.6ZM144.29-7.15L144.29-7.15 144.29-29.1 144.04-32.6 148.74-32.6 148.49-29.1 148.49-7.25Q148.49-4.85 149.56-3.93 150.64-3 152.74-3L152.74-3Q153.74-3 154.46-3.2 155.19-3.4 155.84-3.75L155.84-3.75 156.64-3.25 156.64-0.15Q155.54 0.25 154.41 0.43 153.29 0.6 152.24 0.6L152.24 0.6Q150.24 0.6 148.41-0.08 146.59-0.75 145.44-2.43 144.29-4.1 144.29-7.15ZM142.49-22L139.99-21.75 139.99-25.5 143.19-25.5 146.39-24 149.59-25.5 156.14-25.5 156.14-21.75 153.64-22 142.49-22ZM173.19 0.6L173.19 0.6Q170.19 0.6 167.44-0.7 164.69-2 162.96-4.95 161.24-7.9 161.24-12.75L161.24-12.75Q161.24-16.45 162.24-19 163.24-21.55 164.94-23.13 166.64-24.7 168.79-25.4 170.94-26.1 173.19-26.1L173.19-26.1Q175.44-26.1 177.59-25.4 179.74-24.7 181.44-23.13 183.14-21.55 184.14-19 185.14-16.45 185.14-12.75L185.14-12.75Q185.14-7.9 183.41-4.95 181.69-2 178.96-0.7 176.24 0.6 173.19 0.6ZM173.19-3L173.19-3Q176.74-3 178.79-5.2 180.84-7.4 180.84-12.85L180.84-12.85Q180.84-16.5 179.91-18.6 178.99-20.7 177.29-21.6 175.59-22.5 173.19-22.5L173.19-22.5Q170.79-22.5 169.09-21.6 167.39-20.7 166.46-18.6 165.54-16.5 165.54-12.85L165.54-12.85Q165.54-7.4 167.59-5.2 169.64-3 173.19-3ZM203.23 0.6L203.23 0.6Q201.98 0.6 201.06 0.45 200.13 0.3 199.53 0.1L199.53 0.1 194.58-4.05 194.58-7.1Q195.78-5.5 197.03-4.6 198.28-3.7 199.68-3.35 201.08-3 202.63-3L202.63-3Q207.28-3 209.01-5.5 210.73-8 210.73-12.5L210.73-12.5Q210.73-15.75 209.96-17.98 209.18-20.2 207.46-21.35 205.73-22.5 202.88-22.5L202.88-22.5Q200.83-22.5 199.26-21.95 197.68-21.4 196.51-20.48 195.33-19.55 194.38-18.45L194.38-18.45 194.38-21.65 199.58-25.4Q200.48-25.7 201.56-25.9 202.63-26.1 203.78-26.1L203.78-26.1Q206.58-26.1 209.16-24.73 211.73-23.35 213.38-20.4 215.03-17.45 215.03-12.75L215.03-12.75Q215.03-8.9 213.73-5.88 212.43-2.85 209.83-1.13 207.23 0.6 203.23 0.6ZM196.83 11L191.63 11 192.13 7 192.13-21.5 191.63-25.5 195.33-25.5 196.33-20.9 196.33 7 196.83 11ZM245.58 0.6L245.58 0.6Q242.63 0.65 239.83 0 237.03-0.65 234.83-1.7L234.83-1.7 234.83-5.5 235.83-6Q237.88-4.75 240.05-4.08 242.23-3.4 245.03-3.4L245.03-3.4Q248.78-3.4 250.93-4.7 253.08-6 253.08-8.6L253.08-8.6Q253.08-10.4 252.13-11.63 251.18-12.85 249.58-13.75 247.98-14.65 246.1-15.43 244.23-16.2 242.33-17.07 240.43-17.95 238.83-19.15 237.23-20.35 236.28-22.1 235.33-23.85 235.33-26.4L235.33-26.4Q235.33-29.65 236.9-31.68 238.48-33.7 241.03-34.65 243.58-35.6 246.48-35.6L246.48-35.6Q248.48-35.6 250.73-35.18 252.98-34.75 255.18-33.8L255.18-33.8 255.18-30 254.18-29.5Q252.48-30.55 250.6-31.08 248.73-31.6 246.78-31.6L246.78-31.6Q244.73-31.6 243.13-31.03 241.53-30.45 240.63-29.33 239.73-28.2 239.73-26.5L239.73-26.5Q239.73-24.75 240.68-23.55 241.63-22.35 243.23-21.48 244.83-20.6 246.73-19.83 248.63-19.05 250.5-18.18 252.38-17.3 253.98-16.07 255.58-14.85 256.53-13.08 257.48-11.3 257.48-8.75L257.48-8.75Q257.48-6.2 256.5-4.42 255.53-2.65 253.85-1.55 252.18-0.45 250.05 0.08 247.93 0.6 245.58 0.6ZM287.68 0L282.48 0 282.98-4 282.98-16.55Q282.98-19.45 281.4-20.88 279.83-22.3 276.73-22.3L276.73-22.3Q274.33-22.3 272.58-21.58 270.83-20.85 269.68-19.9 268.53-18.95 267.88-18.2L267.88-18.2 267.88-21.35 273.28-25.6Q274.58-25.9 275.65-26 276.73-26.1 277.63-26.1L277.63-26.1Q281.23-26.1 283.3-24.95 285.38-23.8 286.28-21.73 287.18-19.65 287.18-16.95L287.18-16.95 287.18-4 287.68 0ZM269.98 0L264.78 0 265.28-4 265.28-32.4 264.78-36.4 269.98-36.4 269.48-32.4 269.48-4 269.98 0ZM305.62 0.6L305.62 0.6Q302.62 0.6 299.87-0.7 297.12-2 295.4-4.95 293.67-7.9 293.67-12.75L293.67-12.75Q293.67-16.45 294.67-19 295.67-21.55 297.37-23.13 299.07-24.7 301.22-25.4 303.37-26.1 305.62-26.1L305.62-26.1Q307.87-26.1 310.02-25.4 312.17-24.7 313.87-23.13 315.57-21.55 316.57-19 317.57-16.45 317.57-12.75L317.57-12.75Q317.57-7.9 315.85-4.95 314.12-2 311.4-0.7 308.67 0.6 305.62 0.6ZM305.62-3L305.62-3Q309.17-3 311.22-5.2 313.27-7.4 313.27-12.85L313.27-12.85Q313.27-16.5 312.35-18.6 311.42-20.7 309.72-21.6 308.02-22.5 305.62-22.5L305.62-22.5Q303.22-22.5 301.52-21.6 299.82-20.7 298.9-18.6 297.97-16.5 297.97-12.85L297.97-12.85Q297.97-7.4 300.02-5.2 302.07-3 305.62-3ZM335.67 0.6L335.67 0.6Q334.42 0.6 333.5 0.45 332.57 0.3 331.97 0.1L331.97 0.1 327.02-4.05 327.02-7.1Q328.22-5.5 329.47-4.6 330.72-3.7 332.12-3.35 333.52-3 335.07-3L335.07-3Q339.72-3 341.45-5.5 343.17-8 343.17-12.5L343.17-12.5Q343.17-15.75 342.4-17.98 341.62-20.2 339.9-21.35 338.17-22.5 335.32-22.5L335.32-22.5Q333.27-22.5 331.7-21.95 330.12-21.4 328.95-20.48 327.77-19.55 326.82-18.45L326.82-18.45 326.82-21.65 332.02-25.4Q332.92-25.7 334-25.9 335.07-26.1 336.22-26.1L336.22-26.1Q339.02-26.1 341.6-24.73 344.17-23.35 345.82-20.4 347.47-17.45 347.47-12.75L347.47-12.75Q347.47-8.9 346.17-5.88 344.87-2.85 342.27-1.13 339.67 0.6 335.67 0.6ZM329.27 11L324.07 11 324.57 7 324.57-21.5 324.07-25.5 327.77-25.5 328.77-20.9 328.77 7 329.27 11ZM373.07 0L367.77 0 368.27-4 368.27-31 367.77-35 387.77-35 387.77-30.6 384.77-31.1 372.57-31.1 372.57-19.1 386.77-19.1 386.77-14.8 383.77-15.2 372.57-15.2 372.57-4 373.07 0ZM403.91 0.6L403.91 0.6Q400.91 0.6 398.16-0.7 395.41-2 393.69-4.95 391.96-7.9 391.96-12.75L391.96-12.75Q391.96-16.45 392.96-19 393.96-21.55 395.66-23.13 397.36-24.7 399.51-25.4 401.66-26.1 403.91-26.1L403.91-26.1Q406.16-26.1 408.31-25.4 410.46-24.7 412.16-23.13 413.86-21.55 414.86-19 415.86-16.45 415.86-12.75L415.86-12.75Q415.86-7.9 414.14-4.95 412.41-2 409.69-0.7 406.96 0.6 403.91 0.6ZM403.91-3L403.91-3Q407.46-3 409.51-5.2 411.56-7.4 411.56-12.85L411.56-12.85Q411.56-16.5 410.64-18.6 409.71-20.7 408.01-21.6 406.31-22.5 403.91-22.5L403.91-22.5Q401.51-22.5 399.81-21.6 398.11-20.7 397.19-18.6 396.26-16.5 396.26-12.85L396.26-12.85Q396.26-7.4 398.31-5.2 400.36-3 403.91-3ZM427.56 0L422.36 0 422.86-4 422.86-21.5 422.36-25.5 425.71-25.5 426.51-22.55 427.06-22.55 427.06-4 427.56 0ZM426.01-16.45L426.01-16.45 426.01-21.7 430.41-25.45Q432.21-26.1 434.11-26.1L434.11-26.1Q434.96-26.1 435.86-25.98 436.76-25.85 437.71-25.45L437.71-25.45 437.71-22.1 436.91-21.6Q436.06-21.9 435.29-22 434.51-22.1 433.86-22.1L433.86-22.1Q430.91-22.1 429.06-20.58 427.21-19.05 426.01-16.45ZM469.16 0L463.96 0 464.46-4 464.46-14 452.71-35 457.76-35 459.01-32.1 465.76-19.5 466.36-17.2 466.76-17.2 467.36-19.5 474.01-32.1 475.26-35 480.31-35 468.66-14 468.66-4 469.16 0ZM495.25 0.6L495.25 0.6Q492.25 0.6 489.5-0.7 486.75-2 485.03-4.95 483.3-7.9 483.3-12.75L483.3-12.75Q483.3-16.45 484.3-19 485.3-21.55 487-23.13 488.7-24.7 490.85-25.4 493-26.1 495.25-26.1L495.25-26.1Q497.5-26.1 499.65-25.4 501.8-24.7 503.5-23.13 505.2-21.55 506.2-19 507.2-16.45 507.2-12.75L507.2-12.75Q507.2-7.9 505.48-4.95 503.75-2 501.03-0.7 498.3 0.6 495.25 0.6ZM495.25-3L495.25-3Q498.8-3 500.85-5.2 502.9-7.4 502.9-12.85L502.9-12.85Q502.9-16.5 501.98-18.6 501.05-20.7 499.35-21.6 497.65-22.5 495.25-22.5L495.25-22.5Q492.85-22.5 491.15-21.6 489.45-20.7 488.53-18.6 487.6-16.5 487.6-12.85L487.6-12.85Q487.6-7.4 489.65-5.2 491.7-3 495.25-3ZM523.3 0.6L523.3 0.6Q521.75 0.6 520.08 0.2 518.4-0.2 516.98-1.18 515.55-2.15 514.68-3.88 513.8-5.6 513.8-8.3L513.8-8.3 513.8-21.5 513.3-25.5 518.5-25.5 518-21.5 518-8.95Q518-6.45 518.83-5.15 519.65-3.85 521.03-3.43 522.4-3 524.05-3L524.05-3Q527.25-3 529-3.98 530.75-4.95 532.1-6.35L532.1-6.35 532.1-3.55 527.55-0.05Q526.6 0.25 525.55 0.43 524.5 0.6 523.3 0.6ZM535.9 0L531.75 0 531.2-3.15 531.2-21.5 530.7-25.5 535.9-25.5 535.4-21.5 535.4-4 535.9 0ZM548.2 0L543 0 543.5-4 543.5-21.5 543-25.5 546.35-25.5 547.15-22.55 547.7-22.55 547.7-4 548.2 0ZM546.65-16.45L546.65-16.45 546.65-21.7 551.05-25.45Q552.85-26.1 554.75-26.1L554.75-26.1Q555.6-26.1 556.5-25.98 557.4-25.85 558.35-25.45L558.35-25.45 558.35-22.1 557.55-21.6Q556.7-21.9 555.92-22 555.15-22.1 554.5-22.1L554.5-22.1Q551.55-22.1 549.7-20.58 547.85-19.05 546.65-16.45ZM582.79 0L577.54 0 578.04-4 578.04-31 577.54-35 588.59-35Q592.29-35 594.89-33.5 597.49-32 598.87-29.55 600.24-27.1 600.24-24.2L600.24-24.2Q600.24-22.3 599.59-20.4 598.94-18.5 597.57-16.95 596.19-15.4 593.97-14.48 591.74-13.55 588.59-13.55L588.59-13.55 582.29-13.55 582.29-4 582.79 0ZM582.29-31.3L582.29-17.25 588.39-17.25Q592.24-17.25 593.99-19.2 595.74-21.15 595.74-24.2L595.74-24.2Q595.74-27.35 593.92-29.33 592.09-31.3 588.39-31.3L588.39-31.3 582.29-31.3ZM629.59 0L624.39 0 624.89-4 624.89-16.55Q624.89-19.45 623.31-20.88 621.74-22.3 618.64-22.3L618.64-22.3Q616.24-22.3 614.49-21.58 612.74-20.85 611.59-19.9 610.44-18.95 609.79-18.2L609.79-18.2 609.79-21.35 615.19-25.6Q616.49-25.9 617.56-26 618.64-26.1 619.54-26.1L619.54-26.1Q623.14-26.1 625.21-24.95 627.29-23.8 628.19-21.73 629.09-19.65 629.09-16.95L629.09-16.95 629.09-4 629.59 0ZM611.89 0L606.69 0 607.19-4 607.19-32.4 606.69-36.4 611.89-36.4 611.39-32.4 611.39-4 611.89 0ZM647.54 0.6L647.54 0.6Q644.54 0.6 641.79-0.7 639.04-2 637.31-4.95 635.59-7.9 635.59-12.75L635.59-12.75Q635.59-16.45 636.59-19 637.59-21.55 639.29-23.13 640.99-24.7 643.14-25.4 645.29-26.1 647.54-26.1L647.54-26.1Q649.79-26.1 651.94-25.4 654.09-24.7 655.79-23.13 657.49-21.55 658.49-19 659.49-16.45 659.49-12.75L659.49-12.75Q659.49-7.9 657.76-4.95 656.04-2 653.31-0.7 650.59 0.6 647.54 0.6ZM647.54-3L647.54-3Q651.09-3 653.14-5.2 655.19-7.4 655.19-12.85L655.19-12.85Q655.19-16.5 654.26-18.6 653.34-20.7 651.64-21.6 649.94-22.5 647.54-22.5L647.54-22.5Q645.14-22.5 643.44-21.6 641.74-20.7 640.81-18.6 639.89-16.5 639.89-12.85L639.89-12.85Q639.89-7.4 641.94-5.2 643.99-3 647.54-3ZM688.58 0L683.38 0 683.88-4 683.88-16.75Q683.88-19.5 682.33-20.9 680.78-22.3 677.73-22.3L677.73-22.3Q675.33-22.3 673.63-21.6 671.93-20.9 670.86-20.03 669.78-19.15 669.23-18.55L669.23-18.55 669.23-21.45 674.63-25.55Q675.63-25.8 676.68-25.95 677.73-26.1 678.83-26.1L678.83-26.1Q681.23-26.1 683.33-25.28 685.43-24.45 686.76-22.45 688.08-20.45 688.08-16.9L688.08-16.9 688.08-4 688.58 0ZM671.18 0L665.98 0 666.48-4 666.48-21.6 665.98-25.5 669.98-25.5 670.68-22.55 670.68-4 671.18 0ZM694.58-12.8L694.58-12.8Q694.58-17.75 696.21-20.68 697.83-23.6 700.48-24.85 703.13-26.1 706.13-26.1L706.13-26.1Q709.58-26.1 711.91-24.73 714.23-23.35 715.41-20.83 716.58-18.3 716.58-14.8L716.58-14.8Q716.58-13.8 716.48-12.95 716.38-12.1 716.23-11.35L716.23-11.35 696.78-11.35 696.78-12.25 701.28-14.75 712.33-14.75Q712.33-17 711.86-18.75 711.38-20.5 710.03-21.5 708.68-22.5 706.08-22.5L706.08-22.5Q703.38-22.5 701.81-21.33 700.23-20.15 699.56-18.05 698.88-15.95 698.88-13.15L698.88-13.15Q698.88-9.8 699.63-7.75 700.38-5.7 701.63-4.7 702.88-3.7 704.38-3.35 705.88-3 707.38-3L707.38-3Q709.73-3 711.46-3.48 713.18-3.95 714.53-4.75L714.53-4.75 715.33-4.25 715.33-0.65Q713.78-0.1 711.91 0.25 710.03 0.6 707.83 0.6L707.83 0.6Q705.43 0.6 703.06 0.03 700.68-0.55 698.78-2 696.88-3.45 695.73-6.08 694.58-8.7 694.58-12.8Z" opacity="1" transform="matrix(1,0,0,1,0,0)" fill="#000000" class="slogan-text-1" data-fill-palette-color="secondary" id="text-1"></path></svg></g></svg></g></svg></g></svg></g><g transform="matrix(1,0,0,1,85.78574096210826,0)"><svg viewBox="0 0 72.85987807578344 124.65183959953312" height="124.65183959953312" width="72.85987807578344"><g><svg xmlns="http://www.w3.org/2000/svg" xmlns:xlink="http://www.w3.org/1999/xlink" version="1.1" x="0" y="0" viewBox="15.3 0.5 41.5 71" enable-background="new 0 0 72 72" xml:space="preserve" height="124.65183959953312" width="72.85987807578344" class="icon-icon-0" data-fill-palette-color="accent" id="icon-0"><path d="M53.2 0.5H18.8C16.8 0.5 15.3 2.1 15.3 4V68C15.3 70 16.9 71.5 18.8 71.5H53.3C55.3 71.5 56.8 69.9 56.8 68V4C56.8 2.1 55.2 0.5 53.2 0.5M36 69.2C34 69.2 32.3 67.5 32.3 65.5S34 61.8 36 61.8 39.7 63.5 39.7 65.5 38 69.2 36 69.2M51.8 57.7C51.8 58.4 51.2 58.9 50.6 58.9H21.4C20.7 58.9 20.2 58.3 20.2 57.7V6.7C20.2 6 20.8 5.5 21.4 5.5H50.5C51.2 5.5 51.7 6.1 51.7 6.7V57.7z" fill="#000000" data-fill-palette-color="accent"></path></svg></g></svg></g><g></g></svg></g></svg></g></svg></g><g><path d="M171.035 37.791A81.541 81.541 0 0 1 224.485 37.791L220.885 37.791A77.941 77.941 0 0 0 174.635 37.791L171.035 37.791M171.035 209.409A81.541 81.541 0 0 0 224.485 209.409L220.885 209.409A77.941 77.941 0 0 1 174.635 209.409L171.035 209.409" fill="#000000" stroke="transparent" data-fill-palette-color="tertiary"></path></g></svg></g><defs></defs></svg><rect width="395.52" height="247.2" fill="none" stroke="none" visibility="hidden"></rect></g></svg></g></svg>